<?xml version="1.0" ?><svg width="512px" height="512px" viewBox="0 0 512 512" id="Layer_1" style="enable-background:new 0 0 512 512;" version="1.1" xml:space="preserve" xmlns="http://www.w3.org/2000/svg" xmlns:xlink="http://www.w3.org/1999/xlink"><style type="text/css">
	.st0{fill:#D8D8D8;}
	.st1{fill:#49A8FF;}
	.st2{fill:#FDCEB6;}
	.st3{fill:#FFFFFF;}
	.st4{fill:none;stroke:#34374F;stroke-width:12;stroke-linecap:round;stroke-linejoin:round;stroke-miterlimit:10;}
	.st5{fill:#99DB3B;}
	.st6{fill:#474C68;}
	.st7{fill:none;stroke:#34374F;stroke-width:11;stroke-linecap:round;stroke-linejoin:round;stroke-miterlimit:10;}
	.st8{fill:#34374F;}
	.st9{fill:none;stroke:#34374F;stroke-width:13;stroke-linecap:round;stroke-linejoin:round;stroke-miterlimit:10;}
	.st10{fill:none;stroke:#FFFFFF;stroke-width:12;stroke-linecap:round;stroke-linejoin:round;stroke-miterlimit:10;}
	.st11{fill:none;stroke:#34374F;stroke-width:12;stroke-linecap:round;stroke-linejoin:round;}
	.st12{fill:none;stroke:#34374F;stroke-width:12;stroke-linecap:round;stroke-linejoin:round;stroke-dasharray:27.2333,27.2333;}
</style><g><ellipse class="st0" cx="48.97" cy="87.38" rx="18.94" ry="18.94" transform="matrix(0.9654 -0.2607 0.2607 0.9654 -21.0889 15.7907)"/><path class="st0" d="M388.93,270.8h-53.88c-1.1-13.93-4.73-27.85-11.09-41.06l31.81-18.37c6.04,3.97,14.03,4.46,20.72,0.61   c9.44-5.45,12.67-17.52,7.22-26.96c-5.45-9.44-17.52-12.67-26.96-7.22c-6.68,3.86-10.25,11.03-9.83,18.24L315.1,214.4   c-8.27-12.11-18.5-22.22-30.02-30.14l26.94-46.66c2.54-4.41,1.03-10.04-3.37-12.59c-4.41-2.54-10.04-1.03-12.59,3.37l-26.95,46.68   c-12.91-6.13-26.85-9.84-41.1-10.94v-36.73c6.45-3.25,10.88-9.92,10.88-17.64c0-10.9-8.84-19.74-19.74-19.74   c-10.9,0-19.74,8.84-19.74,19.74c0,7.72,4.43,14.39,10.88,17.64v36.71c-13.94,1.05-27.86,4.65-41.1,10.97l-26.95-46.68   c-2.54-4.41-8.18-5.92-12.59-3.37c-4.41,2.54-5.92,8.18-3.37,12.59l26.95,46.68c-12.09,8.3-22.16,18.56-30.05,30.11l-31.79-18.36   c0.42-7.21-3.15-14.39-9.83-18.24c-9.44-5.45-21.51-2.22-26.96,7.22c-5.45,9.44-2.22,21.51,7.22,26.96   c6.68,3.86,14.68,3.36,20.72-0.61l31.81,18.37c-6.17,12.89-9.92,26.82-11.07,41.06H49.4c-5.09,0-9.22,4.13-9.22,9.22   s4.13,9.22,9.22,9.22h53.88c1.1,13.93,4.73,27.85,11.09,41.06l-31.81,18.37c-6.04-3.97-14.03-4.46-20.72-0.61   c-9.44,5.45-12.67,17.52-7.22,26.96c5.45,9.44,17.52,12.67,26.96,7.22c6.68-3.86,10.25-11.03,9.83-18.24l31.81-18.37   c8.27,12.11,18.5,22.22,30.02,30.14l-26.94,46.66c-2.54,4.41-1.03,10.04,3.37,12.59c4.41,2.54,10.04,1.03,12.59-3.37l26.95-46.68   c12.91,6.13,26.85,9.84,41.1,10.94v36.73c-6.45,3.25-10.88,9.92-10.88,17.64c0,10.9,8.84,19.74,19.74,19.74   c10.9,0,19.74-8.84,19.74-19.74c0-7.72-4.43-14.39-10.88-17.64v-36.71c13.94-1.05,27.86-4.65,41.1-10.97l26.95,46.68   c2.54,4.41,8.18,5.92,12.59,3.37c4.41-2.54,5.92-8.18,3.37-12.59l-26.95-46.68c12.09-8.3,22.16-18.56,30.05-30.11l31.79,18.36   c-0.42,7.21,3.15,14.39,9.83,18.24c9.44,5.45,21.51,2.22,26.96-7.22c5.45-9.44,2.22-21.51-7.22-26.96   c-6.68-3.86-14.68-3.36-20.72,0.61l-31.81-18.37c6.17-12.89,9.92-26.82,11.07-41.06h53.9c5.09,0,9.22-4.13,9.22-9.22   S394.02,270.8,388.93,270.8z"/><ellipse class="st0" cx="140.42" cy="67.16" rx="25.17" ry="25.17" transform="matrix(0.5593 -0.8289 0.8289 0.5593 6.2069 145.9883)"/><path class="st0" d="M373.43,226.65l-111.7,222.21c-1.39,2.76,0.62,6.01,3.71,6.01l223.73-0.08c3.09,0,5.09-3.26,3.7-6.01   L380.83,226.64C379.3,223.6,374.96,223.6,373.43,226.65z"/><ellipse class="st5" cx="39.89" cy="87.38" rx="18.94" ry="18.94" transform="matrix(0.9259 -0.3778 0.3778 0.9259 -30.0602 21.5481)"/><path class="st4" d="M49,103.31c-8.97,4.63-20,1.11-24.62-7.86s-1.11-20,7.86-24.62c8.97-4.63,20-1.11,24.62,7.86"/><g><path class="st5" d="M367.44,270.8h-53.88c-1.1-13.93-4.73-27.85-11.09-41.06l31.81-18.37c6.04,3.97,14.03,4.46,20.72,0.61    c9.44-5.45,12.67-17.52,7.22-26.96c-5.45-9.44-17.52-12.67-26.96-7.22c-6.68,3.86-10.25,11.03-9.83,18.24l-31.81,18.37    c-8.27-12.11-18.5-22.22-30.02-30.14l26.94-46.66c2.54-4.41,1.03-10.04-3.37-12.59c-4.41-2.54-10.04-1.03-12.59,3.37l-26.95,46.68    c-12.9-6.13-26.85-9.84-41.1-10.94v-36.73c6.45-3.25,10.88-9.92,10.88-17.64c0-10.9-8.84-19.74-19.74-19.74    s-19.74,8.84-19.74,19.74c0,7.72,4.43,14.39,10.88,17.64v36.71c-13.94,1.05-27.86,4.65-41.1,10.97l-26.95-46.68    c-2.54-4.41-8.18-5.92-12.59-3.37c-4.41,2.54-5.92,8.18-3.37,12.59l26.95,46.68c-12.09,8.3-22.16,18.56-30.05,30.11l-31.79-18.36    c0.42-7.21-3.15-14.39-9.83-18.24c-9.44-5.45-21.51-2.22-26.96,7.22c-5.45,9.44-2.22,21.51,7.22,26.96    c6.68,3.86,14.68,3.36,20.72-0.61l31.81,18.37c-6.17,12.89-9.92,26.82-11.07,41.06H27.9c-5.09,0-9.22,4.13-9.22,9.22    s4.13,9.22,9.22,9.22h53.88c1.1,13.93,4.73,27.85,11.09,41.06l-31.81,18.37c-6.04-3.97-14.03-4.46-20.72-0.61    c-9.44,5.45-12.67,17.52-7.22,26.96c5.45,9.44,17.52,12.67,26.96,7.22c6.68-3.86,10.25-11.03,9.83-18.24l31.81-18.37    c8.27,12.11,18.5,22.22,30.02,30.14l-26.94,46.66c-2.54,4.41-1.03,10.04,3.37,12.59c4.41,2.54,10.04,1.03,12.59-3.37l26.95-46.68    c12.91,6.13,26.85,9.84,41.1,10.94v36.73c-6.45,3.25-10.88,9.92-10.88,17.64c0,10.9,8.84,19.74,19.74,19.74    s19.74-8.84,19.74-19.74c0-7.72-4.43-14.39-10.88-17.64v-36.71c13.94-1.05,27.86-4.65,41.1-10.97l26.95,46.68    c2.54,4.41,8.18,5.92,12.59,3.37c4.41-2.54,5.92-8.18,3.37-12.59l-26.95-46.68c12.09-8.3,22.16-18.56,30.05-30.11l31.79,18.36    c-0.42,7.21,3.15,14.39,9.83,18.24c9.44,5.45,21.51,2.22,26.96-7.22c5.45-9.44,2.22-21.51-7.22-26.96    c-6.68-3.86-14.68-3.36-20.72,0.61l-31.81-18.37c6.17-12.89,9.92-26.82,11.07-41.06h53.9c5.09,0,9.22-4.13,9.22-9.22    S372.53,270.8,367.44,270.8z"/><path class="st3" d="M100.17,279.54c0-54.67,38.27-100.4,89.48-111.87c-0.11-0.83-0.15-1.67-0.11-2.51    c-59.71,3.97-106.92,53.65-106.92,114.37c0,61.32,48.15,111.4,108.71,114.49c0.05-0.74,0.17-1.47,0.34-2.19    C139.45,381.13,100.17,334.93,100.17,279.54z"/><circle class="st3" cx="135.09" cy="280.53" r="19.77"/><ellipse class="st3" cx="266.64" cy="334.47" rx="14.22" ry="14.22" transform="matrix(0.2298 -0.9732 0.9732 0.2298 -120.1442 517.1399)"/><circle class="st3" cx="230.6" cy="223.27" r="20.06"/><ellipse class="st5" cx="118.92" cy="67.37" rx="25.17" ry="25.17" transform="matrix(0.4406 -0.8977 0.8977 0.4406 6.0423 144.4446)"/><path class="st4" d="M367.44,270.8h-53.88c-1.1-13.93-4.73-27.85-11.09-41.06l31.81-18.37c6.04,3.97,14.03,4.46,20.72,0.61    c9.44-5.45,12.67-17.52,7.22-26.96c-5.45-9.44-17.52-12.67-26.96-7.22c-6.68,3.86-10.25,11.03-9.83,18.24l-31.81,18.37    c-8.27-12.11-18.5-22.22-30.02-30.14l26.94-46.66c2.54-4.41,1.03-10.04-3.37-12.59c-4.41-2.54-10.04-1.03-12.59,3.37l-26.95,46.68    c-12.9-6.13-26.85-9.84-41.1-10.94v-36.73c6.45-3.25,10.88-9.92,10.88-17.64c0-10.9-8.84-19.74-19.74-19.74    s-19.74,8.84-19.74,19.74c0,7.72,4.43,14.39,10.88,17.64v36.71c-13.94,1.05-27.86,4.65-41.1,10.97l-26.95-46.68    c-2.54-4.41-8.18-5.92-12.59-3.37c-4.41,2.54-5.92,8.18-3.37,12.59l26.95,46.68c-12.09,8.3-22.16,18.56-30.05,30.11l-31.79-18.36    c0.42-7.21-3.15-14.39-9.83-18.24c-9.44-5.45-21.51-2.22-26.96,7.22c-5.45,9.44-2.22,21.51,7.22,26.96    c6.68,3.86,14.68,3.36,20.72-0.61l31.81,18.37c-6.17,12.89-9.92,26.82-11.07,41.06H27.9c-5.09,0-9.22,4.13-9.22,9.22    s4.13,9.22,9.22,9.22h53.88c1.1,13.93,4.73,27.85,11.09,41.06l-31.81,18.37c-6.04-3.97-14.03-4.46-20.72-0.61    c-9.44,5.45-12.67,17.52-7.22,26.96c5.45,9.44,17.52,12.67,26.96,7.22c6.68-3.86,10.25-11.03,9.83-18.24l31.81-18.37    c8.27,12.11,18.5,22.22,30.02,30.14l-26.94,46.66c-2.54,4.41-1.03,10.04,3.37,12.59c4.41,2.54,10.04,1.03,12.59-3.37l26.95-46.68    c12.91,6.13,26.85,9.84,41.1,10.94v36.73c-6.45,3.25-10.88,9.92-10.88,17.64c0,10.9,8.84,19.74,19.74,19.74    s19.74-8.84,19.74-19.74c0-7.72-4.43-14.39-10.88-17.64v-36.71c13.94-1.05,27.86-4.65,41.1-10.97l26.95,46.68    c2.54,4.41,8.18,5.92,12.59,3.37c4.41-2.54,5.92-8.18,3.37-12.59l-26.95-46.68c12.09-8.3,22.16-18.56,30.05-30.11l31.79,18.36    c-0.42,7.21,3.15,14.39,9.83,18.24c9.44,5.45,21.51,2.22,26.96-7.22c5.45-9.44,2.22-21.51-7.22-26.96    c-6.68-3.86-14.68-3.36-20.72,0.61l-31.81-18.37c6.17-12.89,9.92-26.82,11.07-41.06h53.9c5.09,0,9.22-4.13,9.22-9.22    S372.53,270.8,367.44,270.8z"/><circle class="st4" cx="230.6" cy="223.27" r="20.06"/><circle class="st3" cx="200.47" cy="319.41" r="25.17"/><circle class="st4" cx="200.47" cy="319.41" r="25.17"/><ellipse class="st4" cx="118.92" cy="67.16" rx="25.17" ry="25.17" transform="matrix(0.4666 -0.8845 0.8845 0.4666 4.037 141.0063)"/><path class="st4" d="M154.07,280.25c0,10.38-8.41,18.79-18.79,18.79s-18.79-8.41-18.79-18.79s8.41-18.79,18.79-18.79"/><path class="st4" d="M269.82,320.45c7.71,2.23,12.15,10.28,9.92,17.99c-2.23,7.71-10.28,12.15-17.99,9.92    c-7.71-2.23-12.15-10.28-9.92-17.99"/><ellipse class="st8" cx="168.25" cy="231.68" rx="11.66" ry="11.66" transform="matrix(0.9239 -0.3827 0.3827 0.9239 -75.8545 82.0237)"/><path class="st8" d="M80.75,127.4c1.23,6.32-2.9,12.44-9.23,13.67c-6.32,1.23-12.44-2.9-13.67-9.23    c-1.23-6.32,2.9-12.44,9.23-13.67C73.4,116.95,79.53,121.08,80.75,127.4z"/><ellipse class="st8" cx="258.43" cy="287.78" rx="11.66" ry="11.66" transform="matrix(0.9732 -0.2298 0.2298 0.9732 -59.2042 67.0735)"/><g><polygon class="st1" points="350.96,214.62 232.54,450.19 469.73,450.11    "/><polygon class="st3" points="338.45,301.23 272.44,425.59 429.79,425.53 365.01,302.41 362.06,382.08 345.53,385.03      339.87,380.14    "/><g><path class="st5" d="M362.41,380.14c-0.06,1.6-0.45,2.98-1.15,4.14c-0.7,1.17-1.49,1.74-2.39,1.74c-5.15,0-10.3,0-15.45,0      c-0.9,0-1.69-0.58-2.39-1.74c-0.7-1.16-1.09-2.54-1.15-4.14c-1.25-31.32-2.51-62.64-3.76-93.96c-0.06-1.6,0.33-2.98,1.18-4.14      c0.86-1.16,1.91-1.74,3.16-1.74c7.12,0,14.25,0,21.37,0c1.24,0,2.3,0.58,3.16,1.74c0.86,1.16,1.25,2.54,1.18,4.14      C364.91,317.5,363.66,348.82,362.41,380.14z"/><path class="st5" d="M360.53,424.12c-0.06,1.39-0.4,2.6-0.99,3.61c-0.59,1.02-1.25,1.52-2,1.52c-4.27,0-8.55,0-12.82,0      c-0.75,0-1.41-0.5-2-1.52c-0.59-1.01-0.92-2.22-0.99-3.61c-0.29-6.4-0.59-7.92-0.88-14.31c-0.06-1.39,0.18-2.59,0.76-3.61      c0.58-1.01,1.3-1.52,2.16-1.52c4.91,0,9.81,0,14.72,0c0.86,0,1.58,0.51,2.16,1.52c0.58,1.01,0.83,2.22,0.76,3.61      C361.12,416.2,360.83,417.72,360.53,424.12z"/></g><g><path class="st4" d="M362.41,380.14c-0.06,1.6-0.45,2.98-1.15,4.14c-0.7,1.17-1.49,1.74-2.39,1.74c-5.15,0-10.3,0-15.45,0      c-0.9,0-1.69-0.58-2.39-1.74c-0.7-1.16-1.09-2.54-1.15-4.14c-1.25-31.32-2.51-62.64-3.76-93.96c-0.06-1.6,0.33-2.98,1.18-4.14      c0.86-1.16,1.91-1.74,3.16-1.74c7.12,0,14.25,0,21.37,0c1.24,0,2.3,0.58,3.16,1.74c0.86,1.16,1.25,2.54,1.18,4.14      C364.91,317.5,363.66,348.82,362.41,380.14z"/><path class="st4" d="M360.53,424.12c-0.06,1.39-0.4,2.6-0.99,3.61c-0.59,1.02-1.25,1.52-2,1.52c-4.27,0-8.55,0-12.82,0      c-0.75,0-1.41-0.5-2-1.52c-0.59-1.01-0.92-2.22-0.99-3.61c-0.29-6.4-0.59-7.92-0.88-14.31c-0.06-1.39,0.18-2.59,0.76-3.61      c0.58-1.01,1.3-1.52,2.16-1.52c4.91,0,9.81,0,14.72,0c0.86,0,1.58,0.51,2.16,1.52c0.58,1.01,0.83,2.22,0.76,3.61      C361.12,416.2,360.83,417.72,360.53,424.12z"/></g><polygon class="st4" points="350.96,214.62 232.54,450.19 469.73,450.11    "/><polyline class="st4" points="388.15,342.97 429.79,425.53 386.36,425.55    "/><polyline class="st4" points="314.52,425.57 272.44,425.59 333.87,303.38    "/></g></g></g></svg>